<?xml version="1.0" encoding="utf-8"?>
<!-- Generator: Adobe Illustrator 23.0.3, SVG Export Plug-In . SVG Version: 6.00 Build 0)  -->
<svg version="1.1" id="layer1" xmlns="http://www.w3.org/2000/svg" xmlns:xlink="http://www.w3.org/1999/xlink" x="0px" y="0px"
     viewBox="0 0 179 72" style="enable-background:new 0 0 179 72;" xml:space="preserve">
<style type="text/css">
	.st0{fill:#00207F;}
	.st1{fill:#D10D24;}
</style>
    <polygon class="st0" points="50.5,22.2 50.3,22 53.8,19.3 53.9,19.5 "/>
    <polygon class="st0" points="24.6,22.6 21.2,18.3 21.4,18.2 24.7,22.5 "/>
    <polygon class="st0" points="53.5,53.9 50.5,50 50.6,49.9 53.6,53.7 "/>
    <polygon class="st0" points="17.9,53.9 17.7,53.7 22.1,50.3 22.2,50.5 "/>
    <circle class="st1" cx="36.9" cy="26" r="4.1"/>
    <circle class="st1" cx="36.9" cy="9.5" r="2.7"/>
    <rect x="36.8" y="11" class="st1" width="0.2" height="12.5"/>
    <circle class="st1" cx="36.9" cy="62.3" r="2.7"/>
    <circle class="st1" cx="36.9" cy="46.5" r="4.1"/>
    <rect x="36.8" y="49.9" class="st1" width="0.2" height="12.2"/>
    <circle class="st1" cx="10.3" cy="35.9" r="2.7"/>
    <circle class="st1" cx="26.3" cy="35.9" r="4.1"/>
    <rect x="12" y="35.8" class="st1" width="13.3" height="0.2"/>
    <circle class="st1" cx="48.2" cy="35.9" r="4.1"/>
    <circle class="st1" cx="64.7" cy="35.9" r="2.7"/>
    <rect x="52.2" y="35.8" class="st1" width="10.5" height="0.2"/>
    <circle class="st0" cx="48.6" cy="23.7" r="2.5"/>
    <circle class="st0" cx="56.5" cy="17.6" r="3.5"/>
    <circle class="st0" cx="19.7" cy="16.4" r="3.5"/>
    <circle class="st0" cx="25.8" cy="24.3" r="2.5"/>
    <circle class="st0" cx="49.2" cy="48.2" r="2.5"/>
    <circle class="st0" cx="55.3" cy="56.1" r="3.5"/>
    <circle class="st0" cx="16" cy="56.1" r="3.5"/>
    <circle class="st0" cx="23.8" cy="49.2" r="2.5"/>
    <path class="st0" d="M173.3,18.9c-0.7-0.7-1.3-1.4-2.1-2.1c-0.3-0.2-0.6-0.4-0.9-0.4c-2.6,0-5.3,0-7.9,0c-0.6,0-0.7,0.2-0.7,0.7
	c0,2.2,0,4.4,0,6.6s0,4.4,0,6.6c0,0.5,0.2,0.6,0.6,0.6c2.7,0,5.3,0,8,0c0.3,0,0.7-0.2,0.9-0.4c0.7-0.6,1.4-1.3,2-2
	c0.2-0.3,0.4-0.6,0.4-1c0-2.6,0-5.1,0-7.7C173.6,19.5,173.5,19.1,173.3,18.9z M171.1,26.5c0,0.5-0.1,0.9-0.5,1.2
	c-0.1,0.1-0.1,0.1-0.2,0.2c-0.5,0.7-1.2,0.9-2,0.9c-1.2-0.1-2.4,0-3.6,0c-0.5,0-0.6-0.1-0.6-0.6c0-1.5,0-2.9,0-4.4
	c0-1.5,0-2.9,0-4.4c0-0.6,0.2-0.7,0.7-0.7c1.4,0,2.8,0,4.2,0c0.4,0,0.7,0.2,1,0.4c0.9,0.6,1.2,1.5,1.1,2.6
	C171.1,23.3,171.1,24.9,171.1,26.5z"/>
    <path class="st0" d="M157.7,28.7c-2.5,0-4.9,0-7.4,0c-0.5,0-0.7-0.2-0.7-0.7c0-0.9,0-1.8,0-2.7c0-0.5,0.2-0.6,0.6-0.6
	c1.9,0,3.8,0,5.6,0c1.5,0,1.5,0,1.5-1.5c0-0.6-0.2-0.8-0.7-0.8c-2.1,0-4.2,0-6.3,0c-0.5,0-0.7-0.2-0.6-0.7c0-0.9,0-1.7,0-2.6
	c0-0.5,0.2-0.6,0.6-0.6c2.2,0,4.4,0,6.5,0c1.6,0,1.6,0,1.6-1.6c0-0.5-0.1-0.6-0.6-0.6c-3.3,0-6.7,0-10,0c-0.5,0-0.6,0.2-0.6,0.7
	c0,2.2,0,4.4,0,6.6s0,4.4,0,6.6c0,0.5,0.1,0.6,0.6,0.6c3,0,6.1,0,9.1,0c1.5,0,1.5,0,1.5-1.5C158.5,28.8,158.3,28.7,157.7,28.7z"/>
    <path class="st0" d="M98.4,16.4c-0.4,0-0.9,0-1.3,0c-0.5,0-0.6,0.1-0.6,0.6c0,1.6,0,3.2,0,4.8c0,0.5-0.1,0.7-0.6,0.6
	c-1.8,0-3.5,0-5.3,0h-1.1v-0.7c0-1.6,0-3.2,0-4.8c0-0.4-0.1-0.6-0.5-0.5c-0.4,0-0.9,0-1.3,0c-0.6-0.1-0.7,0.2-0.7,0.7c0,4,0,8,0,12
	c0,0.6-0.2,1.4,0.1,1.7c0.4,0.3,1.2,0.1,1.8,0.2c0.5,0.1,0.6-0.2,0.6-0.7c0-1.7,0-3.4,0-5c0-0.4,0.1-0.6,0.6-0.6c2,0,3.9,0,5.9,0
	c0.4,0,0.6,0.1,0.6,0.6c0,1.3,0,2.6,0,3.8c0,0.6,0,1.2,0.1,1.8c0.6,0,1.3,0.1,1.9,0.1c0.5,0,0.6-0.2,0.6-0.6c0-4.5,0-8.9,0-13.4
	C99,16.6,98.9,16.4,98.4,16.4z"/>
    <path class="st0" d="M138.5,24.1c-0.4-0.4-0.4-0.7,0-1.1c1.8-1.9,3.6-3.9,5.4-5.8c0.2-0.2,0.3-0.4,0.6-0.7c-0.7,0-1.2,0-1.8,0
	c-0.9-0.1-1.5,0.2-2.1,0.9c-1.2,1.4-2.5,2.7-3.7,4.1c-0.5,0.5-1,1.1-1.6,1.7c0-0.4,0-0.6,0-0.8c0-1.8,0-3.6,0-5.3
	c0-0.4-0.1-0.6-0.5-0.5c-0.4,0-0.9,0-1.3,0c-0.6-0.1-0.7,0.2-0.7,0.7c0,4.4,0,8.8,0,13.2c0,0.1,0,0.2,0,0.4c0.1,0.1,0.2,0.3,0.3,0.3
	c0.7,0,1.4,0,2.2,0v-6.7l0.2-0.1c0.1,0.2,0.2,0.3,0.4,0.5c1.5,1.6,3,3.2,4.4,4.9c0.9,1.1,1.9,1.7,3.3,1.5c0.4-0.1,0.8,0,1.3,0
	c-0.3-0.3-0.4-0.5-0.6-0.7C142.3,28.2,140.4,26.1,138.5,24.1z"/>
    <path class="st0" d="M110.5,17.1c-0.2-0.5-0.4-0.7-1-0.7c-0.4,0-0.9,0-1.3,0c-0.4,0-0.6,0.1-0.7,0.5c-1.5,3.9-3.1,7.8-4.7,11.6
	c-0.3,0.8-0.6,1.5-0.9,2.4c0.9,0,1.6,0,2.4,0c0.1,0,0.3-0.2,0.3-0.4c0.3-0.8,0.6-1.6,0.9-2.4c0.1-0.3,0.3-0.5,0.6-0.5
	c1.8,0,3.7,0,5.5,0c0.4,0,0.5,0.1,0.6,0.5c0.3,0.8,0.6,1.6,0.9,2.4c0.1,0.1,0.2,0.4,0.3,0.4c0.8,0,1.6,0,2.5,0
	c0-0.1-0.1-0.2-0.1-0.3C114.1,26.1,112.3,21.6,110.5,17.1z M106.6,25.4c0.8-2,1.5-3.9,2.2-5.9l0.2,0c0.7,1.9,1.5,3.9,2.2,5.9
	L106.6,25.4z"/>
    <path class="st0" d="M121.1,19.6c0.6-0.8,1.4-1.1,2.4-1c0.3,0,0.5,0,0.8,0c1.4-0.2,2.4,0.2,3.2,1.4c0.1,0.1,0.2,0.2,0.3,0.3
	c0.1,0.1,0.3,0.1,0.4,0c0.5-0.4,1-0.9,1.7-1.5c-0.9-0.9-1.7-1.6-2.5-2.3c-0.2-0.1-0.4-0.2-0.6-0.1c-1.8,0-3.7,0-5.5,0
	c-0.3,0-0.6,0.1-0.8,0.3c-0.7,0.7-1.4,1.4-2.1,2.1c-0.2,0.3-0.4,0.6-0.4,0.9c0,2.6,0,5.2,0,7.8c0,0.3,0.2,0.7,0.4,0.9
	c0.7,0.7,1.3,1.4,2.1,2.1c0.2,0.2,0.6,0.3,0.9,0.4c1.4,0,2.9-0.1,4.3,0c1.3,0.1,2.2-0.3,3-1.2c1.2-1.3,1.2-1.3-0.1-2.5
	c-0.3-0.3-0.6-0.4-0.9,0c-0.3,0.3-0.6,0.6-0.8,0.9c-0.3,0.5-0.9,0.7-1.5,0.6c-0.7-0.1-1.4-0.1-2.2,0c-0.9,0.1-1.5-0.2-2.1-0.9
	c-0.4-0.5-0.6-0.9-0.6-1.5c0-1.8,0-3.6,0-5.4C120.6,20.4,120.8,20,121.1,19.6z"/>
    <path class="st0" d="M164.2,19.3c0,1.5,0,2.9,0,4.4s0,3,0,4.4c0-1.5,0-2.9,0-4.4S164.2,20.8,164.2,19.3z"/>
    <path class="st1" d="M132.8,56.2c0-2,0-3.9,0-5.9s0-4,0-6c0,2,0,4,0,6S132.8,54.3,132.8,56.2z"/>
    <path class="st1" d="M110.8,54.5c-2.6,0-5.3,0-7.9,0c-0.5,0-0.7-0.1-0.7-0.7c0-1,0-2,0-2.9c0-0.5,0.2-0.7,0.7-0.7c2,0,4,0,6,0
	c1.6,0,1.6,0,1.6-1.6c0-0.6-0.2-0.8-0.8-0.8c-2.2,0-4.4,0-6.7,0c-0.6,0-0.9-0.1-0.8-0.8c0-0.9,0-1.8,0-2.7c0-0.5,0.2-0.6,0.7-0.6
	c2.3,0,4.6,0,6.9,0c1.8,0,1.8,0,1.8-1.8c0-0.5-0.1-0.6-0.6-0.6c-3.6,0-7.2,0-10.8,0c-0.5,0-0.7,0.2-0.7,0.7c0,2.4,0,4.7,0,7.1
	c0,2.4,0,4.7,0,7.1c0,0.5,0.2,0.7,0.7,0.7c3.2,0,6.5,0,9.7,0c1.6,0,1.6,0,1.6-1.6C111.5,54.7,111.4,54.5,110.8,54.5z"/>
    <path class="st1" d="M152.8,50.5c-0.2-0.8-1.2-1.4-1.8-2c-0.3-0.2-0.6-0.4-1-0.4c-1.8-0.1-3.6-0.3-5.4-0.4c-0.8,0-1.4-0.5-1.5-1.1
	c-0.2-0.7-0.3-1.5,0.3-2.2c0.5-0.5,1-0.8,1.7-0.7c0.6,0.1,1.2,0.1,1.8,0c1.4-0.2,2.6,0.1,3.4,1.4c0,0,0,0,0,0c0.3,0.3,0.5,0.3,0.8,0
	c0.3-0.4,0.7-0.7,1-1c0.3-0.3,0.3-0.5,0-0.8c-0.5-0.5-1-1.1-1.6-1.6c-0.3-0.2-0.6-0.4-0.9-0.4c-1.5,0-2.9,0.1-4.4,0
	c-1.8-0.2-3.1,0.3-4.3,1.8c-0.5,0.6-0.7,1.2-0.8,2c-0.2,1.9,0.3,3.4,1.9,4.5c0.3,0.2,0.6,0.4,1,0.5c1.9,0.2,3.7,0.3,5.6,0.5
	c0.3,0.1,0.6,0.2,0.8,0.4c0.5,0.3,0.6,0.8,0.6,1.4c0,1.7-0.7,2.3-2.3,2.3c-0.7,0-1.4-0.1-2.1,0c-1.5,0.2-2.7-0.2-3.6-1.5
	c0,0-0.1-0.1-0.1-0.1c-0.3-0.3-0.5-0.3-0.7,0c-0.3,0.4-0.7,0.7-1,1s-0.3,0.6,0,0.8c0.6,0.6,1.1,1.2,1.7,1.7c0.2,0.2,0.5,0.3,0.8,0.3
	c1.2,0,2.3,0,3.5,0c1.2,0,2.3,0,3.5,0c0.3,0,0.6-0.2,0.9-0.4c0.6-0.6,1.2-1.2,1.9-1.8c0.2-0.2,0.3-0.4,0.3-0.6
	C152.9,52.9,153.1,51.6,152.8,50.5z"/>
    <path class="st1" d="M94.2,43.8c1.7,0,1.7,0,1.7-1.7c0-0.6-0.2-0.8-0.8-0.7c-2,0-3.9,0-5.9,0c-2.1,0-1.7-0.4-1.7,1.9
	c0,0.4,0.1,0.5,0.5,0.5c0.5,0,1.1,0,1.6,0c0.6,0,0.8,0.2,0.8,0.8c0,2.9,0,5.9,0,8.8c0,1.2,0.2,1.1-1.1,1.1c-1.8,0-1.8,0-1.8,1.8
	c0,0.5,0.2,0.6,0.6,0.6c1.2,0,2.4,0,3.5,0c0.8,0,1.7,0,2.5,0c2.1,0,1.7,0.4,1.8-1.8c0-0.5-0.2-0.6-0.7-0.6c-0.5,0-1,0-1.5,0
	c-0.6,0.1-0.8-0.2-0.8-0.8c0-2.9,0-5.9,0-8.8C93.1,43.6,92.9,43.8,94.2,43.8z"/>
    <path class="st1" d="M137.2,41.3c-1.9,0-3.8,0-5.8,0s-3.8,0-5.8,0c-0.4,0-0.6,0.1-0.6,0.6c0,0.4,0,0.8,0,1.2c0,0.5,0.1,0.6,0.6,0.6
	c1.2,0,2.5,0,3.7,0c0.6,0,0.8,0.2,0.7,0.7c0,0.2,0,0.4,0,0.6c0,3.7,0,7.4,0,11.1c0,0.6,0.1,0.9,0.7,0.8c0.4,0,0.9,0,1.3,0
	c0.5,0,0.7-0.2,0.7-0.7c0-2,0-3.9,0-5.9s0-4,0-6c0-0.5,0.2-0.6,0.6-0.6c0.9,0,1.8,0,2.8,0c1.7,0,1.7,0,1.7-1.7
	C137.9,41.5,137.7,41.3,137.2,41.3z"/>
    <path class="st1" d="M125.5,54.5c-2.4,0-4.7,0-7.1,0c-0.6,0-0.8-0.2-0.7-0.8c0-3.9,0-7.7,0-11.6v-0.8c-0.7,0-1.3,0-1.9,0
	c-0.6,0-0.8,0.2-0.8,0.7c0,4.7,0,9.4,0,14.1c0,0.6,0.2,0.8,0.8,0.8c2.9,0,5.8,0,8.7,0c1.7,0,1.7,0,1.7-1.8
	C126.2,54.6,126,54.5,125.5,54.5z"/>
</svg>
